<svg width="52" height="52" viewBox="0 0 52 52" fill="none" xmlns="http://www.w3.org/2000/svg">
<g clip-path="url(#clip0)">
<path d="M46.9906 26.3673C46.7884 37.96 37.2253 47.1939 25.6313 46.992C14.0425 46.7889 4.80796 37.226 5.01095 25.6338C5.21159 14.0401 14.7737 4.80509 26.3645 5.00774C37.9578 5.2098 47.192 14.7741 46.9899 26.3675L46.9906 26.3673Z" fill="#F7931A"/>
<path d="M34.3489 21.003C34.127 18.1864 31.716 17.2014 28.656 16.8794L28.724 12.9789L26.3492 12.9378L26.283 16.7355C25.6595 16.7246 25.0213 16.7258 24.3872 16.7273L24.4543 12.9045L22.0814 12.863L22.0124 16.7624C21.4982 16.7639 20.9933 16.7646 20.501 16.7564L20.5009 16.7443L17.2263 16.686L17.1827 19.2218C17.1827 19.2218 18.9365 19.2189 18.9068 19.2507C19.8685 19.2678 20.1724 19.8314 20.2544 20.3149L20.177 24.7584C20.2434 24.7599 20.3299 24.7642 20.4277 24.7793L20.1775 24.7751L20.0677 31.0002C20.0202 31.3021 19.8338 31.7816 19.1619 31.771C19.1918 31.7984 17.4361 31.7404 17.4361 31.7404L16.915 34.5682L20.0053 34.6219C20.5803 34.6326 21.1458 34.6522 21.7005 34.6656L21.6328 38.6112L24.0045 38.653L24.0732 34.7496C24.7235 34.7746 25.3536 34.7908 25.9688 34.8009L25.9 38.6861L28.2742 38.7273L28.3437 34.7894C32.3392 34.6301 35.1511 33.6731 35.5623 29.9318C35.8951 26.9185 34.4994 25.5468 32.243 24.9625C33.6314 24.2843 34.5136 23.0643 34.3483 21.0032L34.3489 21.003ZM30.8794 29.3803C30.8286 32.3286 25.7874 31.9056 24.1775 31.8786L24.2693 26.6518C25.8789 26.6803 30.932 26.3057 30.88 29.3802L30.8794 29.3803ZM29.9032 21.9869C29.8557 24.6691 25.6513 24.2826 24.3104 24.2595L24.3932 19.519C25.7342 19.5421 29.9524 19.1893 29.9032 21.9869Z" fill="white"/>
</g>
<defs>
<clipPath id="clip0">
<rect width="42" height="42" fill="white" transform="translate(0.814453 10.2617) rotate(-13)"/>
</clipPath>
</defs>
</svg>
